HIERARCHY
ROOT joint_0
{
	OFFSET 0.000000 0.000000 0.000000
	CHANNELS 6 Xposition Yposition Zposition Zrotation Yrotation Xrotation 
	JOINT joint_1
	{
		OFFSET 0.511002 1.944000 108.288940
		CHANNELS 3 Zrotation Yrotation Xrotation
		JOINT joint_2
		{
			OFFSET -9.074005 1.512993 98.440063
			CHANNELS 3 Zrotation Yrotation Xrotation
			JOINT joint_3
			{
				OFFSET -8.590996 1.815002 98.366943
				CHANNELS 3 Zrotation Yrotation Xrotation
				JOINT joint_4
				{
					OFFSET 2.489998 3.531998 136.462036
					CHANNELS 3 Zrotation Yrotation Xrotation
					JOINT joint_5
					{
						OFFSET 22.708000 2.955002 80.357056
						CHANNELS 3 Zrotation Yrotation Xrotation
						End Site
						{
							OFFSET 0.000000 0.000000 0.000000
						}
					}
				}
				JOINT joint_6
				{
					OFFSET 2.860001 -27.684998 77.234009
					CHANNELS 3 Zrotation Yrotation Xrotation
					JOINT joint_7
					{
						OFFSET 5.449997 -131.244003 -18.851929
						CHANNELS 3 Zrotation Yrotation Xrotation
						JOINT joint_8
						{
							OFFSET 35.757000 -24.661995 -264.074097
							CHANNELS 3 Zrotation Yrotation Xrotation
							JOINT joint_9
							{
								OFFSET 49.392001 -1.747002 -239.960938
								CHANNELS 3 Zrotation Yrotation Xrotation
								End Site
								{
									OFFSET 0.000000 0.000000 0.000000
								}
							}
						}
					}
				}
				JOINT joint_10
				{
					OFFSET -0.127998 31.625000 75.753052
					CHANNELS 3 Zrotation Yrotation Xrotation
					JOINT joint_11
					{
						OFFSET -5.618004 131.132996 -19.557007
						CHANNELS 3 Zrotation Yrotation Xrotation
						JOINT joint_12
						{
							OFFSET 46.488998 30.127991 -261.826050
							CHANNELS 3 Zrotation Yrotation Xrotation
							JOINT joint_13
							{
								OFFSET 66.021003 0.474030 -235.934937
								CHANNELS 3 Zrotation Yrotation Xrotation
								End Site
								{
									OFFSET 0.000000 0.000000 0.000000
								}
							}
						}
					}
				}
			}
		}
	}
	JOINT joint_14
	{
		OFFSET 15.887001 -78.871004 -94.561035
		CHANNELS 3 Zrotation Yrotation Xrotation
		JOINT joint_15
		{
			OFFSET -4.133003 6.714001 -473.615967
			CHANNELS 3 Zrotation Yrotation Xrotation
			JOINT joint_16
			{
				OFFSET -19.541000 5.340000 -399.613007
				CHANNELS 3 Zrotation Yrotation Xrotation
				JOINT joint_17
				{
					OFFSET 164.317001 41.657999 -73.195000
					CHANNELS 3 Zrotation Yrotation Xrotation
					End Site
					{
						OFFSET 0.000000 0.000000 0.000000
					}
				}
			}
		}
	}
	JOINT joint_18
	{
		OFFSET 6.513000 77.960991 -96.406982
		CHANNELS 3 Zrotation Yrotation Xrotation
		JOINT joint_19
		{
			OFFSET -10.660004 -8.518997 -473.485016
			CHANNELS 3 Zrotation Yrotation Xrotation
			JOINT joint_20
			{
				OFFSET -36.967995 -11.098999 -398.260010
				CHANNELS 3 Zrotation Yrotation Xrotation
				JOINT joint_21
				{
					OFFSET 166.067997 30.363998 -74.785000
					CHANNELS 3 Zrotation Yrotation Xrotation
					End Site
					{
						OFFSET 0.000000 0.000000 0.000000
					}
				}
			}
		}
	}
}
MOTION
Frames: 16
Frame Time: 0.016667
21.679000 97.699000 1068.186040 0.784857 3.615033 2.378722 1.836364 3.920726 -0.977799 1.221098 -0.444184 0.155163 1.107899 0.771556 -0.198274 -0.033604 -2.980597 0.516081 0.000000 0.000000 0.000000 2.004376 1.065625 -2.828080 -1.548252 1.501853 -5.308552 -0.676261 -3.946136 -3.200230 0.000000 0.000000 0.000000 -1.001971 2.296865 0.123580 2.188205 2.838395 4.686982 1.082791 -7.550040 4.215435 0.000000 0.000000 0.000000 -2.024496 -18.072398 -4.859311 0.176488 43.044370 -2.470676 -0.671699 0.596497 -0.406292 0.000000 0.000000 0.000000 -4.048003 -5.920230 0.952143 -3.769178 16.268472 -3.427094 -3.757854 -2.052029 -1.228805 0.000000 0.000000 0.000000 
28.088000 97.363000 1068.473020 0.794929 3.165961 2.476464 1.960224 4.362806 -1.104589 1.082712 -0.523664 0.210283 0.931417 0.849774 -0.194804 -0.072773 -2.612777 0.610093 0.000000 0.000000 0.000000 1.992922 0.881289 -2.833241 -1.655998 1.308809 -5.833374 -0.675877 -4.443380 -3.188168 0.000000 0.000000 0.000000 -1.219463 2.401075 0.376021 2.336487 2.987794 5.192598 1.114547 -7.905072 4.300471 0.000000 0.000000 0.000000 -2.362348 -19.798954 -4.940274 0.375134 46.939690 -2.459526 -0.480554 2.309538 -0.763639 0.000000 0.000000 0.000000 -4.060456 -5.263885 0.845139 -3.728506 16.637927 -3.562585 -3.676261 -1.917306 -1.208548 0.000000 0.000000 0.000000 
34.338000 96.727000 1068.324950 0.872736 2.654897 2.581577 2.111505 5.014745 -1.208724 0.897399 -0.637021 0.243176 0.701825 0.968464 -0.175542 -0.111918 -2.322503 0.711908 0.000000 0.000000 0.000000 2.011259 0.589777 -2.828859 -1.742156 1.011718 -6.329378 -0.668071 -4.871049 -3.140122 0.000000 0.000000 0.000000 -1.421629 2.426075 0.650326 2.476124 3.049958 5.619289 1.195326 -8.168858 4.553054 0.000000 0.000000 0.000000 -2.843795 -21.229630 -4.986588 0.403386 50.290475 -2.497075 -0.702752 2.917710 -0.987612 0.000000 0.000000 0.000000 -4.068125 -4.526587 0.710339 -3.741755 16.988100 -3.614868 -3.634126 -1.930605 -1.178825 0.000000 0.000000 0.000000 
40.518000 95.829000 1067.895020 0.950589 2.150078 2.664865 2.299754 5.774526 -1.258730 0.690317 -0.766253 0.253667 0.446770 1.113470 -0.147190 -0.149570 -2.120886 0.818365 0.000000 0.000000 0.000000 2.060719 0.228119 -2.801681 -1.814272 0.647891 -6.807215 -0.655600 -5.252296 -3.068466 0.000000 0.000000 0.000000 -1.615846 2.390013 0.921396 2.610090 3.047725 6.002182 1.313760 -8.321618 4.927094 0.000000 0.000000 0.000000 -3.395026 -22.516018 -4.970724 0.329024 53.161485 -2.566292 -1.277094 2.727040 -1.121540 0.000000 0.000000 0.000000 -4.043543 -3.783486 0.593690 -3.771977 17.335951 -3.618989 -3.601829 -2.038487 -1.136597 0.000000 0.000000 0.000000 
46.897000 94.690000 1067.529050 0.974952 1.769972 2.712131 2.456601 6.419051 -1.244252 0.526819 -0.881679 0.259281 0.243725 1.240172 -0.117739 -0.179528 -1.985454 0.906108 0.000000 0.000000 0.000000 2.090368 -0.123388 -2.731123 -1.878133 0.289072 -7.266619 -0.643219 -5.587156 -2.998422 0.000000 0.000000 0.000000 -1.737797 2.317608 1.119811 2.726741 2.999149 6.356788 1.457909 -8.287813 5.382814 0.000000 0.000000 0.000000 -3.892811 -23.673896 -4.933306 0.177618 54.892131 -2.618495 -2.110934 2.189988 -1.256241 0.000000 0.000000 0.000000 -3.994575 -3.206073 0.549775 -3.795265 17.770433 -3.639502 -3.584869 -2.092728 -1.111716 0.000000 0.000000 0.000000 
53.481000 93.313000 1067.345950 0.901018 1.578930 2.694328 2.533839 6.855789 -1.135613 0.451644 -0.977222 0.257769 0.147182 1.342326 -0.092452 -0.197572 -1.914614 0.961518 0.000000 0.000000 0.000000 2.069948 -0.451332 -2.589548 -1.937118 -0.058370 -7.739933 -0.626361 -5.887674 -2.911004 0.000000 0.000000 0.000000 -1.748076 2.190299 1.193994 2.824193 2.883862 6.730289 1.624778 -8.005850 5.911865 0.000000 0.000000 0.000000 -4.344099 -24.719947 -4.852606 -0.118567 55.167312 -2.640123 -3.309791 1.389987 -1.467922 0.000000 0.000000 0.000000 -3.936736 -2.879611 0.625714 -3.784679 18.326397 -3.705102 -3.573587 -2.056672 -1.107143 0.000000 0.000000 0.000000 
60.263000 91.694000 1067.227050 0.752276 1.521162 2.629009 2.545321 7.159343 -0.946991 0.445353 -1.053005 0.236808 0.139595 1.431344 -0.068510 -0.207859 -1.911372 0.999932 0.000000 0.000000 0.000000 2.026660 -0.769153 -2.410746 -1.985752 -0.400835 -8.187167 -0.608947 -6.144484 -2.824626 0.000000 0.000000 0.000000 -1.691906 2.021220 1.191313 2.903895 2.717996 7.078611 1.816518 -7.540104 6.523616 0.000000 0.000000 0.000000 -4.742531 -25.640135 -4.734101 -0.535816 54.286926 -2.619946 -4.648124 0.300826 -1.679865 0.000000 0.000000 0.000000 -3.874324 -2.723878 0.788199 -3.743533 18.966375 -3.797565 -3.563428 -1.965662 -1.114208 0.000000 0.000000 0.000000 
67.495000 89.846000 1067.167970 0.575468 1.536242 2.567802 2.500688 7.354347 -0.729104 0.483248 -1.090985 0.195253 0.196838 1.492651 -0.044352 -0.215125 -1.951620 1.034447 0.000000 0.000000 0.000000 2.002934 -1.036204 -2.266543 -2.017993 -0.684391 -8.501511 -0.608753 -6.327216 -2.822434 0.000000 0.000000 0.000000 -1.634231 1.884079 1.189532 2.958783 2.575990 7.281678 2.029118 -7.008290 7.206289 0.000000 0.000000 0.000000 -4.972733 -26.400100 -4.655257 -0.942509 52.493652 -2.536497 -5.594483 -0.760356 -1.786748 0.000000 0.000000 0.000000 -3.807367 -2.661587 0.974158 -3.688072 19.666063 -3.910824 -3.563890 -1.776846 -1.144208 0.000000 0.000000 0.000000 
75.238000 87.853000 1067.262940 0.405628 1.614163 2.542582 2.380207 7.457632 -0.514621 0.551670 -1.092821 0.140780 0.303656 1.513756 -0.015435 -0.219729 -2.046641 1.068458 0.000000 0.000000 0.000000 2.021707 -1.233403 -2.200593 -2.032754 -0.882637 -8.632413 -0.636825 -6.425654 -2.955790 0.000000 0.000000 0.000000 -1.588385 1.809632 1.221024 2.981084 2.485032 7.237660 2.284838 -6.421686 8.036668 0.000000 0.000000 0.000000 -4.958681 -26.924071 -4.709137 -1.290186 49.537167 -2.311267 -5.922718 -1.442655 -1.789832 0.000000 0.000000 0.000000 -3.739195 -2.689895 1.140990 -3.631593 20.418393 -4.032659 -3.591539 -1.422866 -1.216603 0.000000 0.000000 0.000000 
83.430000 85.630000 1067.417970 0.263363 1.742633 2.546707 2.200303 7.501533 -0.317795 0.642092 -1.083019 0.091471 0.439841 1.507583 0.017761 -0.221815 -2.187405 1.101500 0.000000 0.000000 0.000000 2.060432 -1.377848 -2.176756 -2.032303 -1.019283 -8.626051 -0.683052 -6.453949 -3.177092 0.000000 0.000000 0.000000 -1.539717 1.766618 1.258070 2.977528 2.417367 7.043073 2.562761 -5.772522 8.942437 0.000000 0.000000 0.000000 -4.809870 -27.154411 -4.864751 -1.665214 45.424693 -1.984097 -5.914997 -1.681960 -1.792124 0.000000 0.000000 0.000000 -3.672911 -2.796611 1.299351 -3.584328 21.226476 -4.158037 -3.653235 -0.944740 -1.326556 0.000000 0.000000 0.000000 
92.126000 82.938000 1067.339970 0.129155 1.876505 2.552115 2.037993 7.502056 -0.119298 0.753742 -1.062894 0.042500 0.594409 1.496780 0.045507 -0.223613 -2.325431 1.133703 0.000000 0.000000 0.000000 2.088958 -1.481964 -2.152008 -2.016217 -1.114531 -8.515554 -0.734827 -6.421136 -3.426634 0.000000 0.000000 0.000000 -1.513176 1.737850 1.295904 2.961179 2.366935 6.866108 2.793096 -5.150173 9.685519 0.000000 0.000000 0.000000 -4.677972 -27.149070 -4.973984 -2.110544 40.863511 -1.732960 -5.865580 -1.803662 -1.803469 0.000000 0.000000 0.000000 -3.600521 -2.905082 1.494071 -3.541262 22.084894 -4.302932 -3.728556 -0.472875 -1.440420 0.000000 0.000000 0.000000 
101.338000 79.680000 1067.097050 -0.047024 2.041815 2.527956 1.927847 7.416921 0.130244 0.910581 -1.013306 -0.033023 0.794514 1.491119 0.058794 -0.224482 -2.461143 1.162677 0.000000 0.000000 0.000000 2.083184 -1.547563 -2.100231 -1.981514 -1.175090 -8.295844 -0.793363 -6.307261 -3.709785 0.000000 0.000000 0.000000 -1.538739 1.715480 1.347492 2.932088 2.331477 6.737948 2.958545 -4.558900 10.205435 0.000000 0.000000 0.000000 -4.583739 -26.927969 -4.955383 -2.629792 35.741141 -1.593550 -5.782695 -2.041716 -1.765550 0.000000 0.000000 0.000000 -3.505468 -2.982757 1.760983 -3.482359 22.895284 -4.462763 -3.793941 -0.009770 -1.548141 0.000000 0.000000 0.000000 
111.053000 75.953000 1066.621950 -0.152490 2.186187 2.531462 1.826584 7.342296 0.337094 1.063362 -0.984894 -0.082988 0.979673 1.483113 0.070500 -0.224073 -2.594983 1.187212 0.000000 0.000000 0.000000 2.067999 -1.574493 -2.040532 -1.932928 -1.196711 -7.981916 -0.857723 -6.128278 -4.020318 0.000000 0.000000 0.000000 -1.585482 1.708083 1.407084 2.888372 2.313552 6.617603 3.075542 -3.996699 10.563124 0.000000 0.000000 0.000000 -4.550594 -26.372602 -4.932563 -3.209816 29.937814 -1.447560 -5.646074 -1.877880 -1.793999 0.000000 0.000000 0.000000 -3.427645 -3.043614 2.031589 -3.449409 23.752213 -4.625975 -3.888403 0.473979 -1.671010 0.000000 0.000000 0.000000 
121.289000 71.809000 1065.427980 -0.121142 2.214304 2.589275 1.715929 7.362236 0.450525 1.167136 -1.015284 -0.077504 1.099714 1.483734 0.092976 -0.228187 -2.683723 1.219735 0.000000 0.000000 0.000000 2.081128 -1.573811 -1.988189 -1.881553 -1.186270 -7.642979 -0.911797 -5.949754 -4.281372 0.000000 0.000000 0.000000 -1.602395 1.721544 1.443601 2.841571 2.315437 6.566850 3.124270 -3.548723 10.699966 0.000000 0.000000 0.000000 -4.665154 -25.573145 -4.929598 -3.846416 24.542056 -1.320369 -5.659326 -1.199623 -1.992079 0.000000 0.000000 0.000000 -3.403584 -3.123542 2.290062 -3.471365 24.935537 -4.833428 -4.044065 0.883861 -1.802736 0.000000 0.000000 0.000000 
132.166000 67.247000 1063.485960 -0.098300 2.200520 2.596490 1.628200 7.316147 0.675340 1.269410 -1.033020 -0.125026 1.225849 1.501672 0.126259 -0.238257 -2.705226 1.261104 0.000000 0.000000 0.000000 2.122866 -1.543163 -1.940543 -1.829060 -1.142318 -7.299697 -0.949548 -5.780425 -4.466480 0.000000 0.000000 0.000000 -1.569354 1.762284 1.437047 2.792905 2.342782 6.627001 3.085417 -3.230257 10.551261 0.000000 0.000000 0.000000 -4.917744 -24.667148 -4.789191 -4.562597 19.865528 -1.353012 -5.900101 -0.633456 -2.241388 0.000000 0.000000 0.000000 -3.388086 -3.292778 2.659518 -3.493528 26.503121 -5.117171 -4.224889 1.196948 -1.923300 0.000000 0.000000 0.000000 
143.562000 62.269000 1060.823970 -0.093599 2.137163 2.556809 1.559862 7.228801 0.999759 1.379864 -1.033543 -0.224291 1.368485 1.528046 0.163931 -0.252699 -2.680919 1.309072 0.000000 0.000000 0.000000 2.193884 -1.485970 -1.894434 -1.773943 -1.067931 -6.937298 -0.976280 -5.608955 -4.599686 0.000000 0.000000 0.000000 -1.504708 1.824594 1.413981 2.740231 2.390050 6.750037 2.978533 -3.027805 10.182054 0.000000 0.000000 0.000000 -5.249216 -23.685080 -4.521089 -5.312085 15.824671 -1.445822 -6.279597 -0.200359 -2.506086 0.000000 0.000000 0.000000 -3.382039 -3.513630 3.139428 -3.520630 28.371645 -5.473277 -4.444154 1.476599 -2.050449 0.000000 0.000000 0.000000 
